#N canvas -8 -8 2560 1357 10;
#X obj 400 180 pack 0 0;
#X obj 400 234 pack 0 0 0;
#X obj 407 1088 dac~ 1 2;
#X obj 404 305 s voice-note-1;
#X obj 499 303 s voice-note-2;
#X obj 589 303 s voice-note-3;
#X obj 679 303 s voice-note-4;
#X obj 408 633 catch~ output;
#X obj 400 390 voice 1;
#X obj 922 243 loadbang;
#X obj 922 273 metro 10;
#X obj 922 303 s metro;
#X obj 653 920 * 1000;
#X obj 653 980 s attack;
#X obj 746 920 * 8000;
#X obj 746 950 + 200;
#X obj 653 950 + 5;
#X obj 832 950 *~ 25;
#X obj 850 693 clip~ 0 0.999;
#X obj 646 723 *~;
#X obj 400 264 route 1 2 3 4, f 36;
#X obj 646 663 +~ 100;
#X obj 646 633 *~ 1900;
#X obj 400 207 poly 4 1;
#X obj 474 890 *~ 0.5;
#X obj 408 890 *~ 0.5;
#X obj 408 920 hip~ 5;
#X obj 408 750 hip~ 5;
#X obj 408 780 hv_tanh;
#X obj 646 753 hip~ 5;
#X obj 646 783 hv_tanh;
#X obj 457 972 r c1;
#X obj 447 1002 / 127;
#X obj 653 890 / 127;
#X obj 653 860 r c2;
#X obj 746 890 / 127;
#X obj 746 860 r c3;
#X obj 832 890 / 127;
#X obj 832 860 r c4;
#X obj 832 920 sig~;
#X obj 647 545 / 127;
#X obj 646 573 sig~;
#X obj 645 516 r c5;
#X obj 850 633 / 127;
#X obj 850 663 sig~;
#X obj 850 603 r c6;
#X obj 408 720 *~ 0.5;
#X obj 646 693 vd~ ddd;
#X obj 408 950 hv_tanh;
#X obj 408 690 lop~ 1000;
#X obj 646 603 lop~ 10;
#X obj 918 920 * 8000;
#X obj 918 950 + 200;
#X obj 918 890 / 127;
#X obj 918 860 r c7;
#X obj 407 1058 lop~ 8000;
#X obj 1020 860 r c8;
#X obj 1020 890 / 127;
#X obj 1019 983 s octVol;
#X obj 407 1028 *~ 0.75;
#X obj 400 150 notein 0;
#X obj 832 980 s~ detune;
#X obj 478 393 voice 2;
#X obj 549 393 voice 3;
#X obj 618 393 voice 4;
#X text 96 21 Polyphonic subtractive synth controllable via MIDI;
#X text 96 59 ==================================================;
#X text 401 110 Voice management;
#X text 400 122 ----------------;
#X text 400 350 Voices;
#X text 400 362 ------;
#X text 400 482 Post-effects and output;
#X text 401 500 -----------------------;
#X obj 746 980 s cutoff;
#X obj 918 980 s cutoffP;
#X obj 478 1028 r cutoffP;
#X obj 459 663 r cutoff;
#X text 1011 1105 @rjack0101;
#X obj 408 810 delwrite~ ddd 2000;
#X obj 1360 440 adc~ 3;
#X obj 1360 590 s c1;
#X obj 1360 470 snapshot~;
#X obj 1360 560 * 127;
#X obj 1359 102 oscparse;
#X obj 1359 72 netreceive -u -b 8000;
#X obj 1360 500 expr round($f1 * 1000) / 1000;
#X obj 1359 132 unpack s s f;
#X obj 1480 165 pack s f;
#X obj 1480 230 route gain ar prefx detune length fb postfx sub;
#X obj 1292 440 r metro;
#X obj 159 243 s c1;
#X obj 159 303 s c2;
#X obj 159 363 s c3;
#X obj 159 423 s c4;
#X obj 159 483 s c5;
#X obj 159 543 s c6;
#X obj 159 603 s c7;
#X obj 159 663 s c8;
#X obj 78 213 ctlin 1 0;
#X obj 78 273 ctlin 2 0;
#X obj 78 333 ctlin 3 0;
#X obj 78 393 ctlin 4 0;
#X obj 78 453 ctlin 5 0;
#X obj 78 513 ctlin 6 0;
#X obj 78 573 ctlin 7 0;
#X obj 78 633 ctlin 8 0;
#X text 80 132 Midi CC routing;
#X text 80 146 ---------------;
#X text 205 242 gain;
#X text 205 302 attack/release;
#X text 205 362 cutoff (pre-FX);
#X text 205 422 osc2 detune;
#X text 205 482 delay length;
#X text 205 542 delay feedback;
#X text 205 602 cutoff (post-FX);
#X text 205 662 sub-oscillator gain;
#X obj 1498 470 dac~ 3;
#X text 1781 529 Don't sample continuously and send only at change
to allow MIDI and OSC;
#X text 1413 439 route through to analog out;
#X obj 1480 290 s c1;
#X obj 1480 260 * 127;
#X obj 1521 260 * 127;
#X obj 1562 260 * 127;
#X obj 1603 260 * 127;
#X obj 1645 260 * 127;
#X obj 1687 260 * 127;
#X obj 1731 260 * 127;
#X obj 1775 260 * 127;
#X obj 1818 260 print REJECTED OSC MESSAGE;
#X obj 1521 290 s c2;
#X obj 1562 290 s c3;
#X obj 1603 290 s c4;
#X obj 1645 290 s c5;
#X obj 1687 290 s c6;
#X obj 1731 290 s c7;
#X obj 1775 290 s c8;
#X obj 1359 165 print OSC device;
#X text 1358 379 Analog IN/OUT routing;
#X text 1360 21 OSC routing;
#X obj 1357 677 snapshot~;
#X obj 1357 767 * 127;
#X obj 1357 707 expr round($f1 * 1000) / 1000;
#X obj 1289 647 r metro;
#X obj 1355 907 snapshot~;
#X obj 1355 992 * 127;
#X obj 1355 937 expr round($f1 * 1000) / 1000;
#X obj 1287 877 r metro;
#X obj 1355 1125 snapshot~;
#X obj 1355 1215 * 127;
#X obj 1355 1155 expr round($f1 * 1000) / 1000;
#X obj 1287 1095 r metro;
#X obj 1716 677 snapshot~;
#X obj 1716 767 * 127;
#X obj 1716 707 expr round($f1 * 1000) / 1000;
#X obj 1648 647 r metro;
#X obj 1714 907 snapshot~;
#X obj 1713 992 * 127;
#X obj 1714 937 expr round($f1 * 1000) / 1000;
#X obj 1646 877 r metro;
#X obj 1714 1125 snapshot~;
#X obj 1714 1215 * 127;
#X obj 1714 1155 expr round($f1 * 1000) / 1000;
#X obj 1646 1095 r metro;
#X obj 1711 470 snapshot~;
#X obj 1711 560 * 127;
#X obj 1711 500 expr round($f1 * 1000) / 1000;
#X obj 1643 440 r metro;
#X obj 1711 590 s c2;
#X obj 1357 797 s c3;
#X obj 1716 797 s c4;
#X obj 1354 1017 s c5;
#X obj 1715 1020 s c6;
#X obj 1355 1245 s c7;
#X obj 1714 1245 s c8;
#X obj 1711 440 adc~ 4;
#X obj 1849 470 dac~ 4;
#X obj 1357 647 adc~ 5;
#X obj 1495 677 dac~ 5;
#X obj 1716 647 adc~ 6;
#X obj 1854 677 dac~ 6;
#X obj 1355 877 adc~ 7;
#X obj 1493 907 dac~ 7;
#X obj 1714 877 adc~ 8;
#X obj 1852 907 dac~ 8;
#X obj 1355 1095 adc~ 9;
#X obj 1493 1125 dac~ 9;
#X obj 1714 1095 adc~ 10;
#X obj 1852 1125 dac~ 10;
#X text 918 47 ............................;
#X text 918 57 . ____ ._____ _ .......___ .;
#X text 918 67 .| __ )| ____| |....../ _ |.;
#X text 918 87 .| |_) | |___| |___ / ___ |.;
#X text 918 97 .|____/|_____|_____/_/..._|.io;
#X text 918 107 ............................;
#X text 918 77 .| __ || __|.| |...../ _| |.;
#X obj 1480 196 list trim;
#X text 1288 40 -----------------------;
#X text 1347 398 -----------------------;
#X text 856 1128 OSC and Analog added by EEGsynth.org;
#X obj 127 829 adc~;
#X obj 126 883 *~ 0.5;
#X obj 186 882 *~ 0.5;
#X text 60 748 Route audio (mono) IN to OUT through FX section;
#X text 131 775 ----------------;
#X obj 1360 530 change;
#X obj 1711 531 change;
#X obj 1357 736 change;
#X obj 1716 737 change;
#X obj 1355 964 change;
#X obj 1714 964 change;
#X obj 1355 1185 change;
#X obj 1714 1185 change;
#X obj 1255 560 print Analog_1;
#X obj 1595 561 print Analog_2;
#X obj 1245 766 print Analog_3;
#X obj 1604 769 print Analog_4;
#X obj 1245 992 print Analog_5;
#X obj 1600 997 print Analog_6;
#X obj 1247 1210 print Analog_7;
#X obj 1603 1213 print Analog_8;
#X text 36 39 ... and also with OSC and Analogue in (PEPPER configuration)
with all 8 in as analog;
#X connect 0 0 23 0;
#X connect 1 0 20 0;
#X connect 7 0 49 0;
#X connect 9 0 10 0;
#X connect 10 0 11 0;
#X connect 12 0 16 0;
#X connect 14 0 15 0;
#X connect 15 0 73 0;
#X connect 16 0 13 0;
#X connect 17 0 61 0;
#X connect 18 0 19 1;
#X connect 19 0 24 0;
#X connect 19 0 29 0;
#X connect 20 0 3 0;
#X connect 20 1 4 0;
#X connect 20 2 5 0;
#X connect 20 3 6 0;
#X connect 21 0 47 0;
#X connect 22 0 21 0;
#X connect 23 0 1 0;
#X connect 23 1 1 1;
#X connect 23 2 1 2;
#X connect 24 0 26 0;
#X connect 25 0 26 0;
#X connect 26 0 48 0;
#X connect 27 0 28 0;
#X connect 28 0 78 0;
#X connect 29 0 30 0;
#X connect 30 0 78 0;
#X connect 31 0 32 0;
#X connect 32 0 59 1;
#X connect 33 0 12 0;
#X connect 34 0 33 0;
#X connect 35 0 14 0;
#X connect 36 0 35 0;
#X connect 37 0 39 0;
#X connect 38 0 37 0;
#X connect 39 0 17 0;
#X connect 40 0 41 0;
#X connect 41 0 50 0;
#X connect 42 0 40 0;
#X connect 43 0 44 0;
#X connect 44 0 18 0;
#X connect 45 0 43 0;
#X connect 46 0 25 0;
#X connect 46 0 27 0;
#X connect 47 0 19 0;
#X connect 48 0 59 0;
#X connect 49 0 46 0;
#X connect 50 0 22 0;
#X connect 51 0 52 0;
#X connect 52 0 74 0;
#X connect 53 0 51 0;
#X connect 54 0 53 0;
#X connect 55 0 2 0;
#X connect 55 0 2 1;
#X connect 56 0 57 0;
#X connect 57 0 58 0;
#X connect 59 0 55 0;
#X connect 60 0 0 0;
#X connect 60 1 0 1;
#X connect 75 0 55 1;
#X connect 76 0 49 1;
#X connect 79 0 81 0;
#X connect 79 0 116 0;
#X connect 81 0 85 0;
#X connect 82 0 80 0;
#X connect 83 0 86 0;
#X connect 84 0 83 0;
#X connect 85 0 204 0;
#X connect 86 0 136 0;
#X connect 86 1 87 0;
#X connect 86 2 87 1;
#X connect 87 0 195 0;
#X connect 88 0 120 0;
#X connect 88 1 121 0;
#X connect 88 2 122 0;
#X connect 88 3 123 0;
#X connect 88 4 124 0;
#X connect 88 5 125 0;
#X connect 88 6 126 0;
#X connect 88 7 127 0;
#X connect 88 8 128 0;
#X connect 89 0 81 0;
#X connect 98 0 90 0;
#X connect 99 0 91 0;
#X connect 100 0 92 0;
#X connect 101 0 93 0;
#X connect 102 0 94 0;
#X connect 103 0 95 0;
#X connect 104 0 96 0;
#X connect 105 0 97 0;
#X connect 120 0 119 0;
#X connect 121 0 129 0;
#X connect 122 0 130 0;
#X connect 123 0 131 0;
#X connect 124 0 132 0;
#X connect 125 0 133 0;
#X connect 126 0 134 0;
#X connect 127 0 135 0;
#X connect 139 0 141 0;
#X connect 140 0 168 0;
#X connect 141 0 206 0;
#X connect 142 0 139 0;
#X connect 143 0 145 0;
#X connect 144 0 170 0;
#X connect 145 0 208 0;
#X connect 146 0 143 0;
#X connect 147 0 149 0;
#X connect 148 0 172 0;
#X connect 149 0 210 0;
#X connect 150 0 147 0;
#X connect 151 0 153 0;
#X connect 152 0 169 0;
#X connect 153 0 207 0;
#X connect 154 0 151 0;
#X connect 155 0 157 0;
#X connect 156 0 171 0;
#X connect 157 0 209 0;
#X connect 158 0 155 0;
#X connect 159 0 161 0;
#X connect 160 0 173 0;
#X connect 161 0 211 0;
#X connect 162 0 159 0;
#X connect 163 0 165 0;
#X connect 164 0 167 0;
#X connect 165 0 205 0;
#X connect 166 0 163 0;
#X connect 174 0 163 0;
#X connect 174 0 175 0;
#X connect 176 0 139 0;
#X connect 176 0 177 0;
#X connect 178 0 151 0;
#X connect 178 0 179 0;
#X connect 180 0 143 0;
#X connect 180 0 181 0;
#X connect 182 0 155 0;
#X connect 182 0 183 0;
#X connect 184 0 147 0;
#X connect 184 0 185 0;
#X connect 186 0 159 0;
#X connect 186 0 187 0;
#X connect 195 0 88 0;
#X connect 199 0 200 0;
#X connect 199 1 201 0;
#X connect 200 0 49 0;
#X connect 201 0 49 0;
#X connect 204 0 82 0;
#X connect 204 0 212 0;
#X connect 205 0 164 0;
#X connect 206 0 140 0;
#X connect 206 0 214 0;
#X connect 207 0 152 0;
#X connect 207 0 215 0;
#X connect 208 0 144 0;
#X connect 208 0 216 0;
#X connect 209 0 156 0;
#X connect 209 0 217 0;
#X connect 210 0 148 0;
#X connect 210 0 218 0;
#X connect 211 0 160 0;
#X connect 211 0 219 0;
